#N canvas 371 39 983 680 10;
#X declare -stdpath ./;
#X text 584 50 Cooled~ : a micro sound editor;
#X text 582 62 it supports selection and cut/paste modifications;
#X obj 347 591 print recend;
#X obj 397 523 print playend;
#X msg 55 45 bang;
#X obj 54 67 openpanel;
#X msg 89 240 resize \$1;
#X obj 54 87 t s b;
#X obj 103 87 float \$0;
#X text 54 20 Step 1 : Load a sound file;
#X obj 54 110 route float;
#X text 122 39 ( a small one );
#X msg 235 232 record;
#X msg 342 24 bang;
#X text 382 23 Step 2 : Record the sound;
#X obj 90 177 pack s s s;
#X obj 46 131 makefilename %d-right-channel;
#X obj 50 154 makefilename %d-left-channel;
#X obj 628 325 table \$0-right-channel;
#X obj 629 350 table \$0-left-channel;
#X msg 89 198 read -resize \$1 \$2 \$3;
#X obj 316 55 tabplay~ \$0-right-channel;
#X obj 315 81 tabplay~ \$0-left-channel;
#X msg 45 312 refresh;
#X msg 50 481 play;
#X msg 49 459 bang;
#X text 38 508 Step 3 : Play it back;
#X obj 146 249 cooled~ 81839 400 200 1;
#X obj 424 171 hsl 128 15 0 100 0 0 empty empty empty 20 8 0 8 #fcfcfc #000000 #000000 0 1;
#X obj 424 193 hsl 128 15 0 100 0 0 empty empty empty 20 8 0 8 #fcfcfc #000000 #000000 0 1;
#X text 427 145 Reading positions;
#X text 566 167 Start;
#X text 565 193 End;
#X msg 328 120 readspeed \$1;
#X floatatom 465 120 5 0 0 0 - - - 0;
#X obj 424 120 / 100;
#X msg 516 120 100;
#X text 548 119 Reading speed;
#X msg 45 342 zoom 2;
#X msg 46 371 zoom 1;
#X msg 388 193 100;
#X obj 324 193 loadbang;
#X obj 627 201 random 100;
#X msg 687 151 bang;
#X obj 708 200 random 100;
#X text 668 128 Random play;
#X obj 629 178 metro 1000;
#X text 628 521 Mouse modifications :;
#X text 628 536 <alt> <cli<k> : erase selection;
#X text 628 551 <shift> <cli<k> : replace by selection;
#X text 445 626 The red area is the selection;
#X text 446 610 point for paste and replace;
#X text 447 595 Note : the blue line is the insertion;
#X msg 388 169 0;
#X text 627 566 <shift> <alt> <cli<k> : add selection [ noize ];
#X text 733 443 (invoke with <right mouse>Properties );
#X text 736 433 You can set the following properties :;
#X text 760 474 * Width : graphical x size;
#X text 760 490 * Height : graphical y size;
#X msg 731 152 stop;
#X obj 710 177 metro 1000;
#X msg 50 405 stereo;
#X text 46 427 Map to stereo;
#X floatatom 493 485 8 0 0 0 - - - 0;
#X floatatom 566 485 8 0 0 0 - - - 0;
#X text 492 506 start;
#X text 555 507 end;
#X text 514 522 Selection;
#X msg 487 233 loop *2;
#X msg 428 232 loop /2;
#X msg 369 232 loop <1;
#X obj 89 220 soundfiler;
#X msg 309 232 loop >1;
#X text 547 234 loop operators ( accept any float value );
#X obj 179 528 output~;
#X obj 180 619 declare -stdpath ./;
#X connect 4 0 5 0;
#X connect 5 0 7 0;
#X connect 6 0 27 0;
#X connect 7 0 15 0;
#X connect 7 1 8 0;
#X connect 8 0 10 0;
#X connect 10 0 16 0;
#X connect 10 0 17 0;
#X connect 12 0 27 0;
#X connect 13 0 12 0;
#X connect 13 0 21 0;
#X connect 13 0 22 0;
#X connect 15 0 20 0;
#X connect 16 0 15 1;
#X connect 17 0 15 2;
#X connect 20 0 71 0;
#X connect 21 0 27 0;
#X connect 22 0 27 1;
#X connect 23 0 27 0;
#X connect 24 0 27 0;
#X connect 25 0 24 0;
#X connect 27 0 74 0;
#X connect 27 1 74 1;
#X connect 27 2 2 0;
#X connect 27 3 3 0;
#X connect 27 3 24 0;
#X connect 27 4 63 0;
#X connect 27 5 64 0;
#X connect 28 0 27 2;
#X connect 29 0 27 3;
#X connect 33 0 27 0;
#X connect 34 0 35 0;
#X connect 35 0 33 0;
#X connect 36 0 34 0;
#X connect 38 0 27 0;
#X connect 39 0 27 0;
#X connect 40 0 29 0;
#X connect 41 0 40 0;
#X connect 42 0 27 2;
#X connect 43 0 46 0;
#X connect 43 0 60 0;
#X connect 44 0 27 3;
#X connect 46 0 42 0;
#X connect 53 0 28 0;
#X connect 59 0 46 0;
#X connect 59 0 60 0;
#X connect 60 0 44 0;
#X connect 61 0 27 0;
#X connect 68 0 27 0;
#X connect 69 0 27 0;
#X connect 70 0 27 0;
#X connect 71 0 6 0;
#X connect 72 0 27 0;
