#N canvas 501 111 417 281 10;
#X floatatom 192 112 5 0 0 0 - - - 0;
#X text 75 32 Count up to a limit and then down to zero;
#X text 194 88 Set upper limit;
#X floatatom 122 175 5 0 0 0 - - - 0;
#X obj 118 86 tgl 16 0 empty empty empty 0 -8 0 10 #fcfcfc #000000 #000000 0 1;
#X obj 118 113 metro 200;
#X obj 122 207 hradio 16 1 0 8 empty empty empty 0 -8 0 10 #fcfcfc #000000 #000000 0;
#X obj 121 143 countund 7;
#X connect 0 0 7 1;
#X connect 3 0 6 0;
#X connect 4 0 5 0;
#X connect 5 0 7 0;
#X connect 7 0 3 0;
