#N canvas 395 117 751 495 10;
#X declare -stdpath ./;
#X floatatom 150 58 10 0 0 0 - - - 0;
#X floatatom 232 121 5 0 0 0 - - - 0;
#X floatatom 190 93 5 0 0 0 - - - 0;
#X floatatom 295 140 5 0 0 0 - - - 0;
#X text 149 42 Size of the synthetized sound;
#X text 189 78 Central frequency;
#X text 232 104 Filter width;
#X text 294 125 Skirt width ( "largeur de jupe" in french );
#X msg 114 136 bang;
#X text 99 13 Formant synthesis as described by JP Smets;
#X floatatom 340 159 5 0 0 0 - - - 0;
#X text 382 158 Time Stretch;
#X text 323 217 Theoretically \, a singing voice is a combination of formants but you have to set right frequencies;
#X obj 121 263 formant~ 10000 2600 50 25;
#X obj 108 389 declare -stdpath ./;
#X obj 121 304 output~;
#X connect 0 0 13 1;
#X connect 1 0 13 3;
#X connect 2 0 13 2;
#X connect 3 0 13 4;
#X connect 8 0 13 0;
#X connect 10 0 13 5;
#X connect 13 0 15 0;
