#N canvas 402 84 943 610 10;
#X text 579 533 scrolllist 100 200 200;
#X text 581 546 scrolllist;
#X text 505 534 Examples :;
#X symbolatom 135 539 30 0 0 0 - - - 0;
#X text 477 371 Note : you can scroll the list by dragging;
#X msg 72 98 seek \$1;
#X floatatom 132 100 5 0 0 0 - - - 0;
#X text 449 148 Change the font;
#X msg 121 148 font Helvetica normal 14;
#X msg 302 148 font Courier bold 24;
#X msg 133 176 scroll 200;
#X msg 214 176 scroll -200;
#X text 305 175 Scrolling by numbers for the laziest;
#X obj 259 202 tgl 15 0 empty empty empty 0 -6 0 8 #fcfcfc #000000 #000000 0 1;
#X msg 169 202 graphics \$1;
#X text 388 202 Show or hide graphics;
#X msg 282 201 1;
#X obj 315 202 loadbang;
#X text 503 488 Scrollist lets you display text items in a patch window;
#X text 503 505 Constructor : scrolllist <capacity> <width> <height> | scrolllist ( defaults 100 400 200 );
#X text 173 92 You can seek in the text list;
#X text 173 105 It behaves as a circular list;
#X text 147 123 Sort the text items;
#X text 334 534 Selected text item;
#X text 475 416 with the "Properties" dialog;
#X text 475 402 You can change all the properties of the object;
#X text 659 78 add a text;
#X text 813 109 insert a text;
#X msg 607 26 the aesthetics of our anger;
#X text 802 134 replace a text;
#X text 833 168 delete a text;
#X msg 617 168 delete \$1;
#X obj 697 168 hradio 15 1 0 8 empty empty empty 0 -6 0 8 #fcfcfc #000000 #000000 0;
#X obj 590 283 textfile;
#X msg 590 255 read examples/yesterday.txt cr;
#X msg 664 283 rewind;
#X msg 559 326 add \$1;
#X obj 803 235 tgl 15 0 empty empty empty 0 -6 0 8 #fcfcfc #000000 #000000 0 1;
#X obj 802 256 metro 1000;
#X obj 45 291 scrolllist 25 400 200 {Helvetica\ 14\ normal} white black red;
#X text 475 382 the mouse in the text area;
#X msg 38 76 clear;
#X text 84 76 clear all;
#X obj 467 319 t b;
#X text 801 289 read a full text;
#X msg 466 344 scroll 12;
#X obj 590 232 loadbang;
#X obj 45 270 r smsg;
#X obj 45 498 s somsg;
#X obj 135 513 r somsg;
#X obj 19 195 s smsg;
#X obj 559 352 s smsg;
#X obj 578 195 s smsg;
#X msg 100 124 sort;
#X msg 101 230 bgcolor blue;
#X msg 201 231 fgcolor white;
#X msg 309 230 secolor #567823;
#X text 426 231 change colors;
#X msg 309 253 secolor red;
#X msg 102 253 bgcolor white;
#X msg 202 254 fgcolor black;
#X msg 616 108 insert dystopia 3;
#X msg 615 134 replace anapana 3;
#X msg 603 80 add \$1;
#N canvas 145 130 532 292 any2sym 0;
#X obj 171 120 makefilename %g;
#X obj 288 205 outlet;
#X obj 54 48 inlet;
#X obj 288 120 symbol bang;
#N canvas 727 42 578 444 list-any 0;
#X obj 69 36 inlet;
#X obj 69 370 outlet;
#X obj 69 125 trigger bang list bang;
#X obj 264 301 list prepend;
#X obj 69 294 list;
#X obj 333 259 list append 32;
#X obj 69 332 list tosymbol;
#X obj 185 270 list fromsymbol;
#X obj 69 89 list;
#N canvas 816 210 280 272 drip 0;
#X obj 92 201 outlet;
#X obj 110 32 inlet;
#X obj 81 90 until;
#X obj 92 177 list store;
#X obj 110 61 t b b l;
#X obj 81 119 f;
#X obj 116 120 + 1;
#X msg 129 94 0, f 2;
#X msg 81 148 get \$1 1;
#X connect 1 0 4 0;
#X connect 2 0 5 0;
#X connect 3 0 0 0;
#X connect 3 1 2 1;
#X connect 4 0 2 0;
#X connect 4 1 7 0;
#X connect 4 2 3 1;
#X connect 5 0 6 0;
#X connect 5 0 8 0;
#X connect 6 0 5 1;
#X connect 7 0 5 1;
#X connect 8 0 3 0;
#X restore 133 171 pd drip;
#X obj 133 208 route float symbol;
#X obj 133 238 makefilename %g;
#X connect 0 0 8 0;
#X connect 2 0 4 0;
#X connect 2 1 9 0;
#X connect 2 2 3 1;
#X connect 3 0 4 1;
#X connect 3 0 5 0;
#X connect 4 0 6 0;
#X connect 5 0 3 1;
#X connect 6 0 1 0;
#X connect 7 0 3 0;
#X connect 8 0 2 0;
#X connect 9 0 10 0;
#X connect 10 0 11 0;
#X connect 10 1 7 0;
#X connect 11 0 7 0;
#X restore 405 120 pd list-any;
#X obj 54 87 route symbol float bang, f 59;
#X connect 0 0 1 0;
#X connect 2 0 5 0;
#X connect 3 0 1 0;
#X connect 4 0 1 0;
#X connect 5 0 1 0;
#X connect 5 1 0 0;
#X connect 5 2 3 0;
#X connect 5 3 4 0;
#X restore 559 304 pd any2sym;
#N canvas 145 130 532 292 any2sym 0;
#X obj 171 120 makefilename %g;
#X obj 288 205 outlet;
#X obj 54 48 inlet;
#X obj 288 120 symbol bang;
#N canvas 727 42 578 444 list-any 0;
#X obj 69 36 inlet;
#X obj 69 370 outlet;
#X obj 69 125 trigger bang list bang;
#X obj 264 301 list prepend;
#X obj 69 294 list;
#X obj 333 259 list append 32;
#X obj 69 332 list tosymbol;
#X obj 185 270 list fromsymbol;
#X obj 69 89 list;
#N canvas 816 210 280 272 drip 0;
#X obj 92 201 outlet;
#X obj 110 32 inlet;
#X obj 81 90 until;
#X obj 92 177 list store;
#X obj 110 61 t b b l;
#X obj 81 119 f;
#X obj 116 120 + 1;
#X msg 129 94 0, f 2;
#X msg 81 148 get \$1 1;
#X connect 1 0 4 0;
#X connect 2 0 5 0;
#X connect 3 0 0 0;
#X connect 3 1 2 1;
#X connect 4 0 2 0;
#X connect 4 1 7 0;
#X connect 4 2 3 1;
#X connect 5 0 6 0;
#X connect 5 0 8 0;
#X connect 6 0 5 1;
#X connect 7 0 5 1;
#X connect 8 0 3 0;
#X restore 133 171 pd drip;
#X obj 133 208 route float symbol;
#X obj 133 238 makefilename %g;
#X connect 0 0 8 0;
#X connect 2 0 4 0;
#X connect 2 1 9 0;
#X connect 2 2 3 1;
#X connect 3 0 4 1;
#X connect 3 0 5 0;
#X connect 4 0 6 0;
#X connect 5 0 3 1;
#X connect 6 0 1 0;
#X connect 7 0 3 0;
#X connect 8 0 2 0;
#X connect 9 0 10 0;
#X connect 10 0 11 0;
#X connect 10 1 7 0;
#X connect 11 0 7 0;
#X restore 405 120 pd list-any;
#X obj 54 87 route symbol float bang, f 59;
#X connect 0 0 1 0;
#X connect 2 0 5 0;
#X connect 3 0 1 0;
#X connect 4 0 1 0;
#X connect 5 0 1 0;
#X connect 5 1 0 0;
#X connect 5 2 3 0;
#X connect 5 3 4 0;
#X restore 607 52 pd any2sym;
#X connect 5 0 50 0;
#X connect 6 0 5 0;
#X connect 8 0 50 0;
#X connect 9 0 50 0;
#X connect 10 0 50 0;
#X connect 11 0 50 0;
#X connect 13 0 14 0;
#X connect 14 0 50 0;
#X connect 16 0 13 0;
#X connect 17 0 16 0;
#X connect 28 0 65 0;
#X connect 31 0 52 0;
#X connect 32 0 31 0;
#X connect 33 0 64 0;
#X connect 33 1 35 0;
#X connect 34 0 33 0;
#X connect 35 0 33 0;
#X connect 36 0 43 0;
#X connect 36 0 51 0;
#X connect 37 0 38 0;
#X connect 38 0 33 0;
#X connect 39 0 48 0;
#X connect 41 0 50 0;
#X connect 43 0 45 0;
#X connect 45 0 51 0;
#X connect 46 0 34 0;
#X connect 47 0 39 0;
#X connect 49 0 3 0;
#X connect 53 0 50 0;
#X connect 54 0 33 0;
#X connect 55 0 50 0;
#X connect 56 0 50 0;
#X connect 58 0 50 0;
#X connect 59 0 50 0;
#X connect 60 0 50 0;
#X connect 61 0 52 0;
#X connect 62 0 52 0;
#X connect 63 0 52 0;
#X connect 64 0 36 0;
#X connect 65 0 63 0;
