#N canvas 499 58 788 669 10;
#X declare -stdpath ./;
#X text 425 457 * Width : graphical x size;
#X text 426 472 * Height : graphical y size;
#X floatatom 178 190 5 0 0 0 - - - 0;
#X floatatom 258 189 5 0 0 0 - - - 0;
#X floatatom 336 189 5 0 0 0 - - - 0;
#X floatatom 409 189 5 0 0 0 - - - 0;
#X text 394 296 audience~ is a moving audience simulation;
#X text 396 322 within a 2d space;
#X text 394 309 Each sound input and each listener can be moved;
#X text 426 486 * Nb Listeners : number of listeners;
#X msg 108 82 attenuation 0;
#X msg 84 60 attenuation 0.1;
#X msg 59 37 attenuation 1;
#X obj 410 214 osc~ 10000;
#X text 201 61 Sound attenuation per meter ( default = 0.01 );
#X text 393 385 Example : audience~ 200 200 4 1 0.01 0;
#X text 394 428 (invoke with <right mouse>Properties );
#X text 397 418 You can set the following properties :;
#X obj 258 215 osc~ 500;
#X obj 335 215 osc~ 3000;
#X text 392 357 Constructor : audience~ <width> <height> <nbinputs> <nblisteners> <attenuation> <apply delay flag> | audience~;
#X obj 179 216 osc~ 50;
#X obj 132 282 audience~ 200 200 4 2 0.01 0 0 0 193 188 126 118 145 72 20 182 10 0;
#X msg 169 130 delay 0;
#X msg 174 154 delay 1;
#X text 403 527 Note : the number of inputs + outputs is limited to 10 (but can be easily changed in the code), f 48;
#X text 154 110 Apply delay option ( due to the distance between speaker and listener ), f 72;
#X obj 178 525 output~;
#X obj 183 611 declare -stdpath ./;
#X connect 2 0 21 0;
#X connect 3 0 18 0;
#X connect 4 0 19 0;
#X connect 5 0 13 0;
#X connect 10 0 22 0;
#X connect 11 0 22 0;
#X connect 12 0 22 0;
#X connect 13 0 22 4;
#X connect 18 0 22 2;
#X connect 19 0 22 3;
#X connect 21 0 22 1;
#X connect 22 0 27 0;
#X connect 22 1 27 1;
#X connect 23 0 22 0;
#X connect 24 0 22 0;
