#N canvas 484 81 865 704 10;
#X text 349 598 blinkenlights is a blinkenlights movies player;
#X text 349 612 but it's also a pixel grid than you can use for ASCII art...;
#X text 349 628 Constructor : blinkenlights <width> <height> <x pixel size> <y pixel size>;
#X msg 120 32 create;
#X msg 177 32 destroy;
#X text 269 33 Create/destroy the window;
#X msg 120 151 background 78 34 12;
#X text 270 153 Set the background color [RGB];
#X text 270 176 Set the foreground color [RGB];
#X msg 116 245 pixon \$1 \$2;
#X msg 279 244 bang;
#X msg 280 288 bang;
#X msg 117 289 pixoff \$1 \$2;
#X obj 82 640 blinkenlights 18 8 32 32;
#X msg 120 174 foreground 124 78 89;
#X obj 342 299 hsl 32 8 1 32 0 0 empty empty empty -2 -6 0 8 #fcfcfc #000000 #000000 0 1;
#X obj 331 272 vsl 8 32 1 32 0 0 empty empty empty 0 -8 0 8 #fcfcfc #000000 #000000 0 1;
#X text 350 279 Set a pixel off;
#X text 347 235 Set a pixel on;
#X obj 341 254 hsl 32 8 1 32 0 0 empty empty empty -2 -6 0 8 #fcfcfc #000000 #000000 0 1;
#X obj 330 227 vsl 8 32 1 32 0 0 empty empty empty 0 -8 0 8 #fcfcfc #000000 #000000 0 1;
#X msg 333 331 bang;
#X obj 395 342 hsl 32 8 1 32 0 0 empty empty empty -2 -6 0 8 #fcfcfc #000000 #000000 0 1;
#X obj 384 315 vsl 8 32 1 32 0 0 empty empty empty 0 -8 0 8 #fcfcfc #000000 #000000 0 1;
#X text 405 325 Set a pixel in a particular color;
#X msg 113 332 pixel \$1 \$2 34 23 109;
#X obj 115 360 + 1;
#X obj 212 360 + 1;
#X obj 311 360 random 255;
#X obj 390 360 random 255;
#X obj 465 360 random 255;
#X msg 113 382 pixel \$1 \$2 \$3 \$4 \$5;
#X obj 262 381 pack f f f f f;
#X obj 459 382 t b b b b b;
#X msg 588 361 stop;
#X text 629 364 Random drawing;
#X msg 542 361 bang;
#X obj 543 382 metro 10;
#X obj 141 360 random 32;
#X obj 241 359 random 32;
#X msg 120 129 clear;
#X text 269 127 Clear the area;
#X text 117 209 ============================================ Pixel Functions;
#X text 547 209 ========================================;
#X text 545 16 ========================================;
#X text 534 494 ========================================;
#X text 107 494 =========================================== Movies Functions;
#X text 117 16 =========================================== Grid Actions;
#X obj 209 244 pack f f;
#X obj 210 288 pack f f;
#X obj 270 332 pack f f;
#X msg 120 103 xsize 32;
#X msg 187 103 ysize 32;
#X text 269 101 Set the pixel x & y size;
#X msg 122 55 width 24;
#X msg 120 80 height 24;
#X text 270 59 Set the width ( number of pixels );
#X text 270 78 Set the height ( number of pixels );
#X msg 122 517 open ./blm/ascii_people.blm;
#X msg 330 517 play;
#X msg 372 517 stop;
#X msg 122 544 open \$1;
#X msg 413 517 next;
#X obj 453 516 metro 100;
#X msg 526 517 bang;
#X msg 566 516 stop;
#X obj 183 543 openpanel;
#X obj 256 544 bng 15 250 50 0 empty empty empty 0 -6 0 8 #fcfcfc #000000 #000000;
#X floatatom 610 517 5 0 0 0 - - - 0;
#X text 529 423 ========================================;
#X text 111 422 =============================================== VJ function;
#X msg 127 466 vj \$1;
#X msg 358 466 goto \$1;
#X obj 361 445 hsl 128 15 0 1 0 0 empty empty empty -2 -6 0 8 #fcfcfc #000000 #000000 0 1;
#X obj 127 446 tgl 15 0 empty empty empty 0 -6 0 8 #fcfcfc #000000 #000000 0 1;
#X text 502 442 <- look! you can also scratch the film!;
#X text 525 456 be sure the window is created first....;
#X text 149 442 <- switch to the scratch mode;
#X connect 3 0 13 0;
#X connect 4 0 13 0;
#X connect 6 0 13 0;
#X connect 9 0 13 0;
#X connect 10 0 48 0;
#X connect 11 0 49 0;
#X connect 12 0 13 0;
#X connect 14 0 13 0;
#X connect 15 0 49 0;
#X connect 16 0 11 0;
#X connect 16 0 49 1;
#X connect 19 0 48 0;
#X connect 20 0 10 0;
#X connect 20 0 48 1;
#X connect 21 0 50 0;
#X connect 22 0 50 0;
#X connect 23 0 21 0;
#X connect 23 0 50 1;
#X connect 25 0 13 0;
#X connect 26 0 32 0;
#X connect 27 0 32 1;
#X connect 28 0 32 2;
#X connect 29 0 32 3;
#X connect 30 0 32 4;
#X connect 31 0 13 0;
#X connect 32 0 31 0;
#X connect 33 0 38 0;
#X connect 33 1 39 0;
#X connect 33 2 28 0;
#X connect 33 3 29 0;
#X connect 33 4 30 0;
#X connect 34 0 37 0;
#X connect 36 0 37 0;
#X connect 37 0 33 0;
#X connect 38 0 26 0;
#X connect 39 0 27 0;
#X connect 40 0 13 0;
#X connect 48 0 9 0;
#X connect 49 0 12 0;
#X connect 50 0 25 0;
#X connect 51 0 13 0;
#X connect 52 0 13 0;
#X connect 54 0 13 0;
#X connect 55 0 13 0;
#X connect 58 0 13 0;
#X connect 59 0 13 0;
#X connect 60 0 13 0;
#X connect 61 0 13 0;
#X connect 62 0 13 0;
#X connect 63 0 62 0;
#X connect 64 0 63 0;
#X connect 65 0 63 0;
#X connect 66 0 61 0;
#X connect 67 0 66 0;
#X connect 68 0 63 1;
#X connect 71 0 13 0;
#X connect 72 0 13 0;
#X connect 73 0 72 0;
#X connect 74 0 71 0;
