#N canvas 313 58 935 612 10;
#X floatatom 150 519 5 0 0 0 - - - 0;
#X floatatom 544 520 5 0 0 0 - - - 0;
#X text 547 183 (invoke with <right mouse>Properties );
#X text 548 172 You can set the following properties :;
#X text 572 212 * Width : graphical x size;
#X text 572 223 * Height : graphical y size;
#X text 572 200 * Name;
#X text 198 518 Pitch;
#X text 364 523 Volume ( scaled to [0 \, 1] );
#X text 571 235 * Pitch min : minimum value delivered by left outlet;
#X text 571 247 * Pitch max : maximum value delivered by left outlet;
#X text 571 271 * Step number : number of steps;
#X text 548 150 ( pitch & volume originally but \, really \, anything you like );
#X msg 262 158 transpose \$1;
#X floatatom 265 136 5 0 0 0 - - - 0;
#X text 264 175 You can transpose the melody ( ?? );
#X text 265 186 with a float value;
#X text 572 282 * Default value : must be in [min \, max];
#X obj 152 292 pianoroll pianoroll1 400 192 -15 15 32 16 0 0 1 -12.0968 0.741935 -3.3871 0.16129 5.32258 0.16129 -4.35484 0.354839 6.29032 0.322581 6.29032 1 5.32258 1 -12.0968 0.290323 -10.1613 0.290323 -8.22581 0.580645 -5.32258 1 7.25807 1 -10.1613 0.580645 -15 0.612903 -15 0.580645 -15 1;
#X msg 71 69 bang;
#X obj 70 131 f;
#X obj 100 131 + 1;
#X floatatom 97 196 5 0 0 0 - - - 0;
#X obj 71 95 metro 500;
#X text 551 136 Pianoroll controls two parameters for a sequencer;
#X text 572 259 * Pitch grades : number of grades for the pitch;
#X msg 106 69 stop;
#X floatatom 59 227 5 0 0 0 - - - 0;
#X text 81 52 forward;
#X text 168 51 backward;
#X obj 159 128 f;
#X obj 160 92 metro 500;
#X obj 191 147 - 1;
#X msg 263 110 init;
#X text 303 111 init to default values;
#X msg 265 84 load pattern#1;
#X text 376 70 load and save the patterns;
#X text 376 82 ( values as well as steps number .... );
#X msg 265 61 save pattern#1;
#X text 390 221 you can set the pitch and;
#X text 390 235 the volume with messages;
#X text 390 247 ( positions start at zero );
#X msg 283 225 volume 3 0.345;
#X msg 308 250 pitch 3 -5;
#X obj 163 69 tgl 16 0 empty empty empty 0 -8 0 10 #fcfcfc #000000 #000000 0 1;
#X connect 13 0 18 0;
#X connect 14 0 13 0;
#X connect 18 0 0 0;
#X connect 18 1 1 0;
#X connect 19 0 23 0;
#X connect 20 0 21 0;
#X connect 20 0 22 0;
#X connect 21 0 20 1;
#X connect 22 0 18 0;
#X connect 23 0 20 0;
#X connect 26 0 23 0;
#X connect 27 0 18 0;
#X connect 30 0 32 0;
#X connect 30 0 18 0;
#X connect 31 0 30 0;
#X connect 32 0 30 1;
#X connect 33 0 18 0;
#X connect 35 0 18 0;
#X connect 38 0 18 0;
#X connect 42 0 18 0;
#X connect 43 0 18 0;
#X connect 44 0 31 0;
