#N canvas 422 152 817 563 10;
#X text 28 57 Constructor : playlist <extension> <width> <height>;
#X text 88 95 playlist all 200 200;
#X text 88 107 playlist mp3 200 200;
#X text 30 78 Examples :;
#X symbolatom 363 437 50 0 0 0 - - - 0;
#X text 17 444 Note : you can scroll the list by dragging;
#X text 15 455 the mouse in the yellow area;
#X text 17 466 You can select and scroll in the blue area;
#X obj 360 221 playlist all 400 200 {Courier\ 12\ bold} grey yellow black red;
#X msg 373 77 seek \$1;
#X text 485 63 You can seek a file in the list;
#X text 485 74 It will skip the first two items ( '.' and '..');
#X text 484 86 and behave like a round list;
#X text 28 14 Playlist lets you switch files in one click;
#X text 27 25 It's handling most non-alpha characters gracefully;
#X floatatom 435 79 5 0 0 0 - - - 0;
#X symbolatom 404 464 50 0 0 0 - - - 0;
#X symbolatom 450 491 50 0 0 0 - - - 0;
#X msg 151 163 location ..;
#X msg 150 140 location /tmp;
#X text 33 212 You can change change location;
#X text 33 222 with a message.;
#X text 33 234 Thus \, you can initialize the object;
#X text 32 243 in a particular folder.;
#X msg 151 185 location patches;
#X msg 334 106 sort \$1;
#X obj 395 107 tgl 15 0 empty empty empty 0 -6 0 8 #fcfcfc #000000 #000000 0 1;
#X text 499 110 Use alphabetical or creation time order;
#X text 628 136 Change the font;
#X msg 300 136 font Helvetica normal 14;
#X msg 478 136 font Courier bold 24;
#X msg 379 163 scroll 200;
#X msg 460 163 scroll -200;
#X text 551 162 Scrolling by numbers for the laziest;
#X obj 526 191 tgl 15 0 empty empty empty 0 -6 0 8 #fcfcfc #000000 #000000 0 1;
#X msg 436 191 graphics \$1;
#X text 655 191 Show or hide graphics;
#X msg 549 190 1;
#X obj 582 191 loadbang;
#X connect 8 0 4 0;
#X connect 8 1 16 0;
#X connect 8 2 17 0;
#X connect 9 0 8 0;
#X connect 15 0 9 0;
#X connect 18 0 8 0;
#X connect 19 0 8 0;
#X connect 24 0 8 0;
#X connect 25 0 8 0;
#X connect 26 0 25 0;
#X connect 29 0 8 0;
#X connect 30 0 8 0;
#X connect 31 0 8 0;
#X connect 32 0 8 0;
#X connect 34 0 35 0;
#X connect 35 0 8 0;
#X connect 37 0 34 0;
#X connect 38 0 37 0;
