#N canvas 347 63 932 658 10;
#X declare -stdpath ./;
#X msg 226 328 record;
#X msg 314 49 play;
#X obj 385 262 hsl 128 15 0 100 0 0 empty empty empty 20 8 0 8 #fcfcfc #000000 #000000 0 1;
#X text 352 260 0 %;
#X text 519 261 100 %;
#X obj 386 280 hsl 128 15 0 100 0 0 empty empty empty 20 8 0 8 #fcfcfc #000000 #000000 0 1;
#X text 353 281 0 %;
#X text 521 279 100 %;
#X text 649 261 Start Point;
#X text 651 279 End Point;
#X msg 62 31 bang;
#X obj 62 51 openpanel;
#X obj 62 197 soundfiler;
#X msg 58 316 bang;
#X msg 555 281 100;
#X obj 587 280 loadbang;
#X text 390 550 3s * samplerate / blocksize ( 3*44100/64 = 2067 );
#X floatatom 92 217 10 0 0 0 - - - 0;
#X obj 61 217 / 64;
#X msg 165 217 resize \$1;
#X obj 62 73 t s b;
#X obj 108 73 float \$0;
#X obj 62 90 route float;
#X msg 382 328 flipblocks;
#X text 453 328 Flip blocks ( reverse effect );
#X msg 381 304 swapblocks 0 50 20;
#X text 66 15 Step 1 : Load a sound file;
#X msg 317 142 phase \$1;
#X obj 408 140 hsl 128 15 0 90 0 0 empty empty empty 20 8 0 8 #fcfcfc #000000 #000000 0 1;
#X obj 316 72 hsl 128 15 0 100 0 0 empty empty empty 20 8 0 8 #fcfcfc #000000 #000000 0 1;
#X text 290 73 0 %;
#X text 450 72 100 %;
#X obj 317 91 hsl 128 15 0 100 0 0 empty empty empty 20 8 0 8 #fcfcfc #000000 #000000 0 1;
#X text 291 94 0 %;
#X text 452 90 100 %;
#X text 594 71 Start Point;
#X text 595 90 End Point;
#X msg 486 88 100;
#X obj 513 88 loadbang;
#X text 673 79 Playback positions;
#X msg 311 113 readspeed \$1;
#X floatatom 442 113 5 0 0 0 - - - 0;
#X text 596 111 Reading speed;
#X obj 401 113 / 100;
#X msg 491 114 100;
#X obj 520 114 loadbang;
#X obj 266 457 samplebox~ 2067;
#X text 59 292 Step 2 : Record the sound;
#X text 319 25 Step 3 : Play back recorded sound;
#X text 384 232 Step 4 : modify parts of the sound;
#X text 517 303 Swap sections [0% \, 20%] and [50% \, 70%] of [start \, end];
#X text 392 537 Note : initially \, this is a 3 seconds samplebox~ :;
#X text 405 585 Samplebox records and plays back a sound;
#X text 385 245 Set portions of the sound to modify;
#X text 543 142 100%;
#X text 384 141 0%;
#X obj 87 110 makefilename %d-leftsample;
#X obj 461 411 table \$0-leftsample;
#X obj 600 410 table \$0-rightsample;
#X obj 88 133 makefilename %d-rightsample;
#X obj 63 159 pack s s s;
#X msg 62 180 read -resize \$1 \$2 \$3;
#X obj 59 353 tabplay~ \$0-leftsample;
#X obj 123 373 tabplay~ \$0-rightsample;
#X obj 321 484 print recordend;
#X obj 442 482 print playend;
#X text 595 137 Switch channels ( use as pan for mono input );
#X msg 499 169 bang;
#X text 600 171 Ping-pong ( requires countund object );
#X obj 348 170 countund 90;
#X obj 427 169 metro 100;
#X obj 198 574 declare -stdpath ./;
#X obj 192 495 output~;
#X connect 0 0 46 0;
#X connect 1 0 46 0;
#X connect 2 0 46 4;
#X connect 5 0 46 5;
#X connect 10 0 11 0;
#X connect 11 0 20 0;
#X connect 12 0 18 0;
#X connect 13 0 0 0;
#X connect 13 0 62 0;
#X connect 13 0 63 0;
#X connect 14 0 5 0;
#X connect 15 0 14 0;
#X connect 17 0 19 0;
#X connect 18 0 17 0;
#X connect 19 0 46 0;
#X connect 20 0 60 0;
#X connect 20 1 21 0;
#X connect 21 0 22 0;
#X connect 22 0 56 0;
#X connect 22 0 59 0;
#X connect 23 0 46 0;
#X connect 25 0 46 0;
#X connect 27 0 46 0;
#X connect 28 0 27 0;
#X connect 29 0 46 2;
#X connect 32 0 46 3;
#X connect 37 0 32 0;
#X connect 38 0 37 0;
#X connect 40 0 46 0;
#X connect 41 0 43 0;
#X connect 43 0 40 0;
#X connect 44 0 41 0;
#X connect 45 0 44 0;
#X connect 46 0 72 0;
#X connect 46 1 72 1;
#X connect 46 2 64 0;
#X connect 46 3 65 0;
#X connect 46 3 1 0;
#X connect 56 0 60 1;
#X connect 59 0 60 2;
#X connect 60 0 61 0;
#X connect 61 0 12 0;
#X connect 62 0 46 0;
#X connect 63 0 46 1;
#X connect 67 0 70 0;
#X connect 69 0 27 0;
#X connect 70 0 69 0;
