#N canvas 559 179 450 300 10;
#X declare -stdpath ./;
#N canvas 106 38 858 631 rs-scratcher~ 0;
#X text 24 13 Scratcher~ : lets you record a sound;
#X text 23 24 and \, then \, scratch it !!!;
#X obj 313 260 scratcher~ 151290 200 200 200 2 0.0001;
#X msg 31 88 bang;
#X obj 31 108 openpanel;
#X msg 33 227 resize \$1;
#X obj 31 130 t s b;
#X obj 31 168 pack s s;
#X msg 33 189 read -resize \$1 \$2;
#X obj 77 128 float \$0;
#X obj 100 168 makefilename %d-sonosample;
#X text 32 68 Step 1 : Load a sound file;
#X obj 31 147 route float;
#X text 84 80 ( a small one );
#X msg 524 45 play;
#X text 522 24 Step 3 : Play the sound and scratch with the mouse;
#X msg 559 45 stop;
#X msg 527 243 reset;
#X text 572 246 Reset normal reading speed;
#X text 469 493 Note : the red line indicates the reading speed;
#X text 446 527 Note 2 : only vertical movement will change reading speed;
#X obj 123 450 table \$0-sonosample;
#X msg 524 88 sensibility \$1;
#X msg 561 65 25;
#X floatatom 659 66 5 0 0 0 - - - 0;
#X msg 524 66 5;
#X text 620 88 Set mouse sensibility ( default : 25 );
#X obj 33 206 soundfiler;
#X msg 607 223 showspeed 1;
#X msg 527 223 showspeed 0;
#X text 687 221 Toggle speed line display;
#X msg 305 119 record;
#X msg 269 119 bang;
#X text 214 98 Step 2 : Record the sound;
#X floatatom 664 120 5 0 0 0 - - - 0;
#X msg 526 141 maxspeed \$1;
#X text 603 140 Set speed limit ( default : 2 );
#X msg 526 119 2;
#X msg 569 119 1.5;
#X msg 603 119 1;
#X msg 635 119 0.5;
#X obj 257 146 tabplay~ \$0-sonosample;
#X msg 592 65 100;
#X msg 622 65 200;
#X floatatom 645 174 5 0 0 0 - - - 0;
#X text 603 193 Set turntable inertia ( default : 0.01 );
#X msg 525 193 inertia \$1;
#X msg 609 173 0.01;
#X msg 570 173 0.001;
#X msg 526 173 0.0001;
#X obj 302 510 outlet~;
#X connect 2 0 50 0;
#X connect 3 0 4 0;
#X connect 4 0 6 0;
#X connect 5 0 2 0;
#X connect 6 0 7 0;
#X connect 6 1 9 0;
#X connect 7 0 8 0;
#X connect 8 0 27 0;
#X connect 9 0 12 0;
#X connect 10 0 7 1;
#X connect 12 0 10 0;
#X connect 14 0 2 0;
#X connect 16 0 2 0;
#X connect 17 0 2 0;
#X connect 22 0 2 0;
#X connect 23 0 22 0;
#X connect 24 0 22 0;
#X connect 25 0 22 0;
#X connect 27 0 5 0;
#X connect 28 0 2 0;
#X connect 29 0 2 0;
#X connect 31 0 2 0;
#X connect 32 0 31 0;
#X connect 32 0 41 0;
#X connect 34 0 35 0;
#X connect 35 0 2 0;
#X connect 37 0 35 0;
#X connect 38 0 35 0;
#X connect 39 0 35 0;
#X connect 40 0 35 0;
#X connect 41 0 2 0;
#X connect 41 0 50 0;
#X connect 42 0 22 0;
#X connect 43 0 22 0;
#X connect 44 0 46 0;
#X connect 46 0 2 0;
#X connect 47 0 46 0;
#X connect 48 0 46 0;
#X connect 49 0 46 0;
#X restore 122 98 pd rs-scratcher~;
#X text 107 50 Playing with the block size \,;
#X text 107 60 so everything's in the subpatch;
#X obj 119 226 declare -stdpath ./;
#X obj 113 147 output~;
#X connect 0 0 4 0;
